<svg width="280" height="280" viewBox="0 0 280 280" xmlns="http://www.w3.org/2000/svg">
  <rect width="280" height="280" fill="white"/>
  
  <!-- QR Code pattern simulation -->
  <g fill="black">
    <!-- Top-left finder pattern -->
    <rect x="20" y="20" width="60" height="60"/>
    <rect x="30" y="30" width="40" height="40" fill="white"/>
    <rect x="40" y="40" width="20" height="20"/>
    
    <!-- Top-right finder pattern -->
    <rect x="200" y="20" width="60" height="60"/>
    <rect x="210" y="30" width="40" height="40" fill="white"/>
    <rect x="220" y="40" width="20" height="20"/>
    
    <!-- Bottom-left finder pattern -->
    <rect x="20" y="200" width="60" height="60"/>
    <rect x="30" y="210" width="40" height="40" fill="white"/>
    <rect x="40" y="220" width="20" height="20"/>
    
    <!-- Data patterns -->
    <rect x="100" y="30" width="10" height="10"/>
    <rect x="120" y="30" width="10" height="10"/>
    <rect x="140" y="30" width="10" height="10"/>
    <rect x="160" y="30" width="10" height="10"/>
    
    <rect x="30" y="100" width="10" height="10"/>
    <rect x="50" y="100" width="10" height="10"/>
    <rect x="100" y="100" width="10" height="10"/>
    <rect x="120" y="100" width="10" height="10"/>
    <rect x="140" y="100" width="10" height="10"/>
    <rect x="180" y="100" width="10" height="10"/>
    <rect x="220" y="100" width="10" height="10"/>
    <rect x="240" y="100" width="10" height="10"/>
    
    <rect x="100" y="120" width="10" height="10"/>
    <rect x="140" y="120" width="10" height="10"/>
    <rect x="160" y="120" width="10" height="10"/>
    <rect x="200" y="120" width="10" height="10"/>
    
    <!-- More data patterns -->
    <rect x="30" y="140" width="10" height="10"/>
    <rect x="70" y="140" width="10" height="10"/>
    <rect x="120" y="140" width="10" height="10"/>
    <rect x="180" y="140" width="10" height="10"/>
    <rect x="240" y="140" width="10" height="10"/>
    
    <rect x="50" y="160" width="10" height="10"/>
    <rect x="100" y="160" width="10" height="10"/>
    <rect x="140" y="160" width="10" height="10"/>
    <rect x="200" y="160" width="10" height="10"/>
    <rect x="220" y="160" width="10" height="10"/>
    
    <rect x="100" y="180" width="10" height="10"/>
    <rect x="120" y="180" width="10" height="10"/>
    <rect x="160" y="180" width="10" height="10"/>
    <rect x="200" y="180" width="10" height="10"/>
    <rect x="240" y="180" width="10" height="10"/>
    
    <rect x="100" y="230" width="10" height="10"/>
    <rect x="140" y="230" width="10" height="10"/>
    <rect x="160" y="230" width="10" height="10"/>
    <rect x="180" y="230" width="10" height="10"/>
    <rect x="220" y="230" width="10" height="10"/>
  </g>
  
  <!-- QR Code text -->
  <text x="140" y="270" text-anchor="middle" font-family="Arial, sans-serif" font-size="12" fill="#666">
    VIETCOMBANK QR
  </text>
</svg>